<svg width="165" height="303" xmlns="http://www.w3.org/2000/svg" xmlns:xlink="http://www.w3.org/1999/xlink" xml:space="preserve" overflow="hidden"><defs><clipPath id="clip0"><rect x="2483" y="1734" width="165" height="303"/></clipPath></defs><g clip-path="url(#clip0)" transform="translate(-2483 -1734)"><path d="M2627.38 1995.68 2503.62 1995.68 2503.62 1775.32 2627.38 1775.32 2627.38 1995.68ZM2551.75 1747.77 2579.25 1747.77C2583.03 1747.77 2586.12 1750.87 2586.12 1754.66 2586.12 1758.45 2583.03 1761.55 2579.25 1761.55L2551.75 1761.55C2547.97 1761.55 2544.88 1758.45 2544.88 1754.66 2544.88 1750.87 2547.97 1747.77 2551.75 1747.77ZM2641.12 1734 2489.88 1734C2486.09 1734 2483 1737.1 2483 1740.89L2483 2030.11C2483 2033.9 2486.09 2037 2489.88 2037L2641.12 2037C2644.91 2037 2648 2033.9 2648 2030.11L2648 1740.89C2648 1737.1 2644.91 1734 2641.12 1734Z" fill="#75C2E6" fill-rule="evenodd"/></g></svg>