<svg width="387" height="300" xmlns="http://www.w3.org/2000/svg" xmlns:xlink="http://www.w3.org/1999/xlink" xml:space="preserve" overflow="hidden"><defs><clipPath id="clip0"><rect x="1941" y="1737" width="387" height="300"/></clipPath></defs><g clip-path="url(#clip0)" transform="translate(-1941 -1737)"><path d="M2033 1809.5C2033 1814.75 2028.52 1819 2023 1819 2017.48 1819 2013 1814.75 2013 1809.5 2013 1804.25 2017.48 1800 2023 1800 2028.52 1800 2033 1804.25 2033 1809.5Z" fill="#75C2E6" fill-rule="evenodd"/><path d="M2033 1848.5C2033 1853.75 2028.52 1858 2023 1858 2017.48 1858 2013 1853.75 2013 1848.5 2013 1843.25 2017.48 1839 2023 1839 2028.52 1839 2033 1843.25 2033 1848.5Z" fill="#75C2E6" fill-rule="evenodd"/><path d="M2013 1829C2013 1834.52 2008.75 1839 2003.5 1839 1998.25 1839 1994 1834.52 1994 1829 1994 1823.48 1998.25 1819 2003.5 1819 2008.75 1819 2013 1823.48 2013 1829Z" fill="#75C2E6" fill-rule="evenodd"/><path d="M2052 1829C2052 1834.52 2047.75 1839 2042.5 1839 2037.25 1839 2033 1834.52 2033 1829 2033 1823.48 2037.25 1819 2042.5 1819 2047.75 1819 2052 1823.48 2052 1829Z" fill="#75C2E6" fill-rule="evenodd"/><path d="M2168 1790.5C2168 1795.75 2163.75 1800 2158.5 1800 2153.25 1800 2149 1795.75 2149 1790.5 2149 1785.25 2153.25 1781 2158.5 1781 2163.75 1781 2168 1785.25 2168 1790.5Z" fill="#75C2E6" fill-rule="evenodd"/><path d="M2168 1829C2168 1834.52 2163.75 1839 2158.5 1839 2153.25 1839 2149 1834.52 2149 1829 2149 1823.48 2153.25 1819 2158.5 1819 2163.75 1819 2168 1823.48 2168 1829Z" fill="#75C2E6" fill-rule="evenodd"/><path d="M2149 1809.5C2149 1814.75 2144.52 1819 2139 1819 2133.48 1819 2129 1814.75 2129 1809.5 2129 1804.25 2133.48 1800 2139 1800 2144.52 1800 2149 1804.25 2149 1809.5Z" fill="#75C2E6" fill-rule="evenodd"/><path d="M2187 1809.5C2187 1814.75 2182.75 1819 2177.5 1819 2172.25 1819 2168 1814.75 2168 1809.5 2168 1804.25 2172.25 1800 2177.5 1800 2182.75 1800 2187 1804.25 2187 1809.5Z" fill="#75C2E6" fill-rule="evenodd"/><path d="M2298.9 1873 2269.8 1901.94 2231 1901.94 2231 2008.06 2269.8 2008.06 2298.9 2037 2328 2037 2328 1873Z" fill="#75C2E6" fill-rule="evenodd"/><path d="M2158.5 1853.13C2134.33 1853.13 2115 1833.77 2115 1809.58 2115 1785.39 2134.33 1766.03 2158.5 1766.03 2182.67 1766.03 2202 1785.39 2202 1809.58 2202 1833.77 2182.67 1853.13 2158.5 1853.13ZM2173 2007.97C2167.68 2007.97 2163.33 2003.61 2163.33 1998.29 2163.33 1992.97 2167.68 1988.61 2173 1988.61 2178.32 1988.61 2182.67 1992.97 2182.67 1998.29 2182.67 2003.61 2178.32 2007.97 2173 2007.97ZM2081.17 1872.48C2087.45 1863.77 2092.28 1854.1 2094.22 1842.97 2100.5 1855.06 2110.65 1865.23 2122.25 1872.48L2081.17 1872.48ZM2023.17 1872.48C1999 1872.48 1979.67 1853.13 1979.67 1828.94 1979.67 1804.74 1999 1785.39 2023.17 1785.39 2047.33 1785.39 2066.67 1804.74 2066.67 1828.94 2066.67 1853.13 2047.33 1872.48 2023.17 1872.48ZM2194.27 1872.48C2216.02 1859.9 2231 1836.68 2231 1809.58 2231 1769.42 2198.62 1737 2158.5 1737 2123.22 1737 2094.22 1762.16 2087.45 1795.55 2075.37 1772.32 2051.2 1756.35 2023.17 1756.35 1983.05 1756.35 1950.67 1788.77 1950.67 1828.94 1950.67 1852.65 1962.27 1873.45 1979.67 1887L1979.67 1901.52 1970 1901.52 1960.33 1891.84 1941 1891.84 1941 1940.23 1960.33 1940.23 1970 1930.55 1979.67 1930.55 1979.67 2017.65C1979.67 2028.29 1988.37 2037 1999 2037L2192.33 2037C2202.97 2037 2211.67 2028.29 2211.67 2017.65L2211.67 1891.84C2211.67 1881.68 2203.93 1873.45 2194.27 1872.48Z" fill="#75C2E6" fill-rule="evenodd"/></g></svg>